<svg xmlns="http://www.w3.org/2000/svg" viewBox="0 0 284.936 284.936" class="double-arrow-svg"><path d="M277.515 135.9L144.464 2.857C142.565.955 140.375 0 137.9 0s-4.66.955-6.562 2.857L117.06 17.132c-1.903 1.903-2.853 4.1-2.853 6.567s.95 4.664 2.853 6.567L229.268 142.47 117.062 254.677c-1.903 1.903-2.853 4.093-2.853 6.564 0 2.477.95 4.667 2.853 6.57l14.277 14.27c1.902 1.905 4.1 2.854 6.562 2.854s4.665-.95 6.563-2.854l133.05-133.044c1.902-1.902 2.85-4.093 2.85-6.567s-.95-4.664-2.85-6.57zm-106.783 6.57c0-2.474-.947-4.665-2.857-6.57L34.833 2.857C32.93.955 30.74 0 28.267 0S23.602.955 21.7 2.857L7.426 17.133C5.52 19.036 4.57 21.222 4.57 23.7s.95 4.664 2.856 6.567L119.63 142.47 7.426 254.677C5.52 256.58 4.57 258.77 4.57 261.24c0 2.477.95 4.667 2.856 6.57L21.7 282.08c1.903 1.905 4.093 2.854 6.567 2.854s4.664-.95 6.567-2.854l133.042-133.044c1.9-1.902 2.857-4.093 2.857-6.567z" fill="#297cbb"/></svg>